<svg width="154" height="38" viewBox="0 0 154 38" fill="none" xmlns="http://www.w3.org/2000/svg">
<g clip-path="url(#clip0_132_2102)">
<path d="M59.1839 12.6304C58.6063 12.3941 57.9588 12.2745 57.2383 12.2745C55.5698 12.2745 54.2922 12.8054 53.4055 13.8671C53.3938 13.8788 53.3851 13.8934 53.3734 13.908V12.5837H49.3248V27.5095H53.3734V19.2605C53.3734 18.1491 53.6476 17.3178 54.1931 16.7724C54.7385 16.2269 55.4444 15.9527 56.3107 15.9527C56.722 15.9527 57.0895 16.014 57.4075 16.1394C57.7254 16.2619 57.9996 16.4486 58.2271 16.6965L60.7619 13.7913C60.2865 13.2546 59.7614 12.8695 59.1868 12.6333L59.1839 12.6304Z" fill="#2B21BD"/>
<path d="M72.7649 13.2165C71.6623 12.5689 70.3905 12.2422 68.9496 12.2422C67.5086 12.2422 66.1581 12.5864 64.9622 13.2777C63.7663 13.969 62.8241 14.8937 62.1357 16.0575C61.4444 17.2214 61.1002 18.5456 61.1002 20.0274C61.1002 21.5092 61.4561 22.8714 62.1649 24.044C62.8737 25.2166 63.8392 26.1412 65.0526 26.8092C66.269 27.4801 67.6574 27.8126 69.2238 27.8126C70.4401 27.8126 71.566 27.5968 72.6074 27.1651C73.6487 26.7334 74.5267 26.0946 75.2501 25.2487L72.8699 22.8685C72.4178 23.3848 71.8811 23.7698 71.2627 24.0265C70.6443 24.2832 69.953 24.4115 69.1917 24.4115C68.3458 24.4115 67.6049 24.2307 66.9661 23.8719C66.3273 23.5131 65.8373 22.9968 65.4989 22.3259C65.3647 22.0605 65.2655 21.7746 65.1839 21.4713L76.0814 21.445C76.1631 21.095 76.2214 20.78 76.2506 20.5029C76.2827 20.2258 76.2973 19.9516 76.2973 19.6832C76.2973 18.2627 75.9822 16.9909 75.3551 15.8679C74.728 14.7449 73.8616 13.8582 72.7591 13.2106L72.7649 13.2165ZM66.8494 16.1509C67.4474 15.7921 68.1474 15.6112 68.9496 15.6112C69.7109 15.6112 70.3555 15.7717 70.8806 16.0896C71.4056 16.4105 71.8082 16.8684 72.0853 17.4635C72.2194 17.7493 72.3244 18.0731 72.4032 18.426L65.1897 18.4465C65.2656 18.1694 65.3531 17.9068 65.4727 17.6647C65.7906 17.0172 66.2485 16.5126 66.8465 16.1509H66.8494Z" fill="#2B21BD"/>
<path d="M83.1169 15.9496C83.4349 15.7629 83.8957 15.6725 84.4908 15.6725C85.15 15.6725 85.7626 15.795 86.3284 16.0429C86.8943 16.2909 87.4048 16.6905 87.8569 17.2476L90.2983 14.8062C89.6391 13.9399 88.8107 13.2923 87.8102 12.8606C86.8097 12.4289 85.6925 12.213 84.4587 12.213C83.2249 12.213 82.2652 12.4085 81.3989 12.7993C80.5326 13.1902 79.8704 13.7357 79.4066 14.4357C78.9429 15.1358 78.7124 15.9613 78.7124 16.9063C78.7124 17.8514 78.8933 18.5486 79.252 19.1144C79.6108 19.6803 80.0804 20.1237 80.658 20.4416C81.2355 20.7625 81.8364 21.0192 82.4665 21.2146C83.0936 21.41 83.6974 21.585 84.2749 21.7396C84.8525 21.8942 85.3192 22.0838 85.6809 22.3113C86.0397 22.5389 86.2205 22.8568 86.2205 23.2681C86.2205 23.6385 86.0513 23.9156 85.7101 24.1023C85.3688 24.289 84.87 24.3794 84.2108 24.3794C83.3853 24.3794 82.6356 24.2365 81.956 23.9477C81.2764 23.659 80.6784 23.2273 80.165 22.6497L77.7557 25.0912C78.2515 25.6687 78.8378 26.1558 79.5175 26.5584C80.1971 26.9609 80.9438 27.273 81.7577 27.5005C82.5715 27.728 83.3999 27.8418 84.2458 27.8418C86.0572 27.8418 87.4894 27.4159 88.5394 26.5584C89.5895 25.7037 90.1146 24.5457 90.1146 23.0814C90.1146 22.1743 89.9337 21.4334 89.5749 20.8558C89.2132 20.2783 88.7495 19.8145 88.1836 19.4645C87.6177 19.1144 87.0197 18.8432 86.3926 18.6448C85.7655 18.4494 85.1617 18.2744 84.5841 18.1198C84.0066 17.9652 83.537 17.7843 83.1782 17.5801C82.8165 17.373 82.6386 17.0872 82.6386 16.7138C82.6386 16.3842 82.799 16.1275 83.1169 15.9408V15.9496Z" fill="#2B21BD"/>
<path d="M103.818 13.2165C102.716 12.5689 101.444 12.2422 100.003 12.2422C98.562 12.2422 97.2114 12.5864 96.0155 13.2777C94.8196 13.969 93.8774 14.8937 93.189 16.0575C92.4977 17.2214 92.1535 18.5456 92.1535 20.0274C92.1535 21.5092 92.5094 22.8714 93.2182 24.044C93.927 25.2166 94.8925 26.1412 96.1059 26.8092C97.3223 27.4801 98.7107 27.8126 100.277 27.8126C101.493 27.8126 102.619 27.5968 103.661 27.1651C104.702 26.7334 105.58 26.0946 106.303 25.2487L103.923 22.8685C103.471 23.3848 102.934 23.7698 102.316 24.0265C101.698 24.2832 101.006 24.4115 100.245 24.4115C99.3991 24.4115 98.6582 24.2307 98.0194 23.8719C97.3806 23.5131 96.8906 22.9968 96.5522 22.3259C96.418 22.0605 96.3189 21.7746 96.2372 21.4713L107.135 21.445C107.216 21.095 107.275 20.78 107.304 20.5029C107.336 20.2258 107.351 19.9516 107.351 19.6832C107.351 18.2627 107.036 16.9909 106.408 15.8679C105.781 14.7449 104.915 13.8582 103.812 13.2106L103.818 13.2165ZM97.8998 16.1509C98.4978 15.7921 99.1978 15.6112 100 15.6112C100.761 15.6112 101.406 15.7717 101.931 16.0896C102.456 16.4105 102.859 16.8684 103.136 17.4635C103.27 17.7493 103.375 18.0731 103.454 18.426L96.2401 18.4465C96.3159 18.1694 96.4035 17.9068 96.5231 17.6647C96.841 17.0172 97.2989 16.5126 97.8969 16.1509H97.8998Z" fill="#2B21BD"/>
<path d="M120.024 12.6302C119.447 12.3939 118.799 12.2743 118.079 12.2743C116.41 12.2743 115.133 12.8052 114.249 13.8669C114.237 13.8786 114.229 13.8932 114.217 13.9078V12.5835H110.168V27.5093H114.217V19.2603C114.217 18.1489 114.491 17.3176 115.037 16.7722C115.582 16.2267 116.288 15.9525 117.154 15.9525C117.566 15.9525 117.933 16.0138 118.251 16.1392C118.569 16.2617 118.843 16.4484 119.071 16.6963L121.605 13.7911C121.133 13.2544 120.605 12.8694 120.03 12.6331L120.024 12.6302Z" fill="#2B21BD"/>
<path d="M129.56 22.0372L125.925 12.5835H121.477L128.058 27.5063H130.963L137.511 12.5835H133.218L129.56 22.0372Z" fill="#2B21BD"/>
<path d="M152.513 15.8738C151.886 14.7508 151.019 13.864 149.917 13.2165C148.814 12.5689 147.543 12.2422 146.102 12.2422C144.661 12.2422 143.31 12.5864 142.114 13.2777C140.918 13.969 139.976 14.8937 139.288 16.0575C138.596 17.2214 138.252 18.5456 138.252 20.0274C138.252 21.5092 138.608 22.8714 139.317 24.044C140.026 25.2166 140.991 26.1412 142.205 26.8092C143.421 27.4801 144.809 27.8126 146.376 27.8126C147.592 27.8126 148.718 27.5968 149.759 27.1651C150.801 26.7334 151.679 26.0946 152.402 25.2487L150.022 22.8685C149.57 23.3848 149.033 23.7698 148.415 24.0265C147.796 24.2832 147.105 24.4115 146.344 24.4115C145.498 24.4115 144.757 24.2307 144.118 23.8719C143.479 23.5131 142.989 22.9968 142.651 22.3259C142.517 22.0605 142.418 21.7746 142.336 21.4713L153.233 21.445C153.315 21.095 153.373 20.78 153.403 20.5029C153.435 20.2258 153.449 19.9516 153.449 19.6832C153.449 18.2627 153.134 16.9909 152.507 15.8679L152.513 15.8738ZM144.001 16.1509C144.599 15.7921 145.299 15.6112 146.102 15.6112C146.863 15.6112 147.508 15.7717 148.033 16.0896C148.558 16.4105 148.96 16.8684 149.237 17.4635C149.371 17.7493 149.476 18.0731 149.555 18.426L142.342 18.4465C142.418 18.1694 142.505 17.9068 142.625 17.6647C142.943 17.0172 143.401 16.5126 143.999 16.1509H144.001Z" fill="#2B21BD"/>
<path d="M34.8103 2.70688H26.6546V4.40452C26.6546 5.19208 25.9925 5.82796 25.1787 5.82796C24.7703 5.82796 24.4028 5.66753 24.1344 5.41085C23.8661 5.15416 23.7027 4.7983 23.7027 4.40452V2.70688H13.5023V4.40452C13.5023 4.7983 13.3361 5.15416 13.0706 5.41376C12.8023 5.67045 12.4347 5.83088 12.0293 5.83088C11.2155 5.83088 10.5533 5.19208 10.5533 4.40743V2.7098H4.0224C1.80264 2.70688 0 4.44827 0 7.05598V26.8705V33.1943C0 35.417 1.79973 37.2167 4.0224 37.2167H34.8073C37.03 37.2167 38.8297 35.417 38.8297 33.1943V20.8412L28.3872 31.2166C27.1972 32.4067 26.115 32.8647 25.1787 32.9318C25.0124 32.9434 24.852 32.9434 24.6945 32.9318C22.8656 32.8005 21.7338 31.2166 21.7338 31.2166C17.8047 26.4154 15.2116 26.7859 15.2116 26.7859L5.22416 26.8413C4.70496 26.8413 4.28201 26.4183 4.28201 25.8991H4.27326V7.95438C4.27326 7.41767 4.72537 6.98305 5.27959 6.98305H33.8185C34.3727 6.98305 34.8248 7.41767 34.8248 7.95438V10.2237L25.6191 19.4207L22.638 16.3405C22.2413 15.9904 21.7367 15.8183 21.2379 15.8183C20.6691 15.8183 20.1033 16.04 19.692 16.4805C18.9161 17.306 18.9803 18.5806 19.8378 19.3303L24.149 23.5744L24.3298 23.7348C24.6711 24.0352 25.0912 24.2044 25.517 24.2453C25.5258 24.2453 25.5345 24.2453 25.5462 24.2453C25.5754 24.2453 25.6074 24.2482 25.6366 24.2511C25.6687 24.2511 25.6979 24.2511 25.7329 24.2511C25.762 24.2511 25.7883 24.2511 25.8145 24.2511C26.3279 24.2248 26.8325 24.0207 27.2176 23.6356L27.3984 23.4548L38.2522 12.5485C38.6285 12.1693 38.821 11.6851 38.8327 11.2009C38.8327 11.1834 38.8327 11.1688 38.8327 11.1542V6.59219C38.8327 4.44535 37.0329 2.70688 34.8103 2.70688Z" fill="#2B21BD"/>
<path d="M25.1786 5.06957C25.6045 5.06957 25.9487 4.72537 25.9487 4.29951V0.770061C25.9487 0.344194 25.6045 0 25.1786 0C24.7528 0 24.4086 0.344194 24.4086 0.770061V4.30242C24.4086 4.72829 24.7528 5.07248 25.1786 5.07248V5.06957Z" fill="#2B21BD"/>
<path d="M11.9651 5.06957C12.391 5.06957 12.7352 4.72537 12.7352 4.29951V0.770061C12.7352 0.344194 12.391 0 11.9651 0C11.5393 0 11.1951 0.344194 11.1951 0.770061V4.30242C11.1951 4.72829 11.5393 5.07248 11.9651 5.07248V5.06957Z" fill="#2B21BD"/>
<path d="M10.352 10.2237H8.50565C7.96437 10.2237 7.52557 10.6625 7.52557 11.2038V13.0502C7.52557 13.5915 7.96437 14.0303 8.50565 14.0303H10.352C10.8933 14.0303 11.3321 13.5915 11.3321 13.0502V11.2038C11.3321 10.6625 10.8933 10.2237 10.352 10.2237Z" fill="#2B21BD"/>
</g>
<defs>
<clipPath id="clip0_132_2102">
<rect width="153.455" height="37.2167" fill="white"/>
</clipPath>
</defs>
</svg>
